<svg width="220" height="17" viewBox="0 0 220 17" fill="none" xmlns="http://www.w3.org/2000/svg">
<path d="M211.603 16.56C206.683 16.56 203.683 14.808 203.683 10.728V10.584H208.195V11.088C208.195 12.168 208.579 12.456 211.603 12.456C214.339 12.456 214.627 12.24 214.627 11.52C214.627 10.944 214.315 10.704 212.995 10.536L207.954 9.864C204.954 9.456 203.443 7.848 203.443 5.256C203.443 2.688 205.435 0 211.243 0C216.355 0 218.803 2.232 218.803 5.832V5.976H214.291V5.616C214.291 4.464 213.787 4.08 210.763 4.08C208.459 4.08 207.954 4.392 207.954 5.088C207.954 5.592 208.243 5.832 209.107 5.952L214.146 6.696C218.082 7.272 219.139 9.288 219.139 11.352C219.139 14.112 217.027 16.56 211.603 16.56Z" fill="#FF2139"/>
<path d="M202.52 16.32H188.24V0.23999H202.52V4.29599H192.752V6.21599H202.16V10.248H192.752V12.264H202.52V16.32Z" fill="#FF2139"/>
<path d="M178.411 16.56C172.819 16.56 169.531 13.296 169.531 8.28C169.531 3.264 172.819 0 178.411 0C183.811 0 187.051 2.568 187.051 6.864V7.272H182.011V6.864C182.011 5.04 181.147 4.32 178.483 4.32C175.219 4.32 174.331 5.088 174.331 8.28C174.331 11.472 175.219 12.24 178.483 12.24C181.147 12.24 182.011 11.52 182.011 9.696V9.288H187.051V9.696C187.051 13.992 183.811 16.56 178.411 16.56Z" fill="#FF2139"/>
<path d="M155 16.32H149.936L156.872 0.23999H163.328L170.288 16.32H165.104L163.88 13.344H156.248L155 16.32ZM158.888 7.03199L157.952 9.28799H162.224L161.288 7.03199L160.232 4.31999H159.92L158.888 7.03199Z" fill="#FF2139"/>
<path d="M149.696 16.32H135.896V0.23999H140.408V12.264H149.696V16.32Z" fill="#FF2139"/>
<path d="M124.33 16.32H119.818V0.23999H128.722C132.538 0.23999 134.938 2.42399 134.938 6.23999C134.938 10.056 132.538 12.264 128.722 12.264H124.33V16.32ZM128.218 4.29599H124.33V8.20799H128.218C129.802 8.20799 130.45 7.89599 130.45 6.23999C130.45 4.60799 129.802 4.29599 128.218 4.29599Z" fill="#FF2139"/>
<path d="M106.658 16.32H102.146V0.23999H106.946L111.41 6.26399L113.762 9.95999H114.074L113.858 6.45599V0.23999H118.37V16.32H113.57L108.818 10.128L106.778 6.95999H106.466L106.658 10.032V16.32Z" fill="black"/>
<path d="M91.9431 16.56C86.3511 16.56 83.0391 13.296 83.0391 8.28C83.0391 3.264 86.3511 0 91.9431 0C97.6791 0 100.943 3.264 100.943 8.28C100.943 13.296 97.6791 16.56 91.9431 16.56ZM91.9431 12.24C95.2071 12.24 96.1431 11.472 96.1431 8.28C96.1431 5.088 95.2071 4.32 91.9431 4.32C88.6791 4.32 87.8391 5.088 87.8391 8.28C87.8391 11.472 88.6791 12.24 91.9431 12.24Z" fill="black"/>
<path d="M64.9395 16.32H60.4275V0.23999H66.5475L69.4995 6.91199L71.0835 11.064H71.3955L72.9075 6.91199L75.7155 0.23999H81.8355V16.32H77.3235V9.67199L77.4915 6.98399H77.1795L76.2675 9.67199L73.8675 15.36H68.3955L65.9955 9.67199L65.0835 6.98399H64.7715L64.9395 9.67199V16.32Z" fill="black"/>
<path d="M42.0879 16.32H37.5759V0.23999H43.6959L46.6479 6.91199L48.2319 11.064H48.5439L50.0559 6.91199L52.8639 0.23999H58.9839V16.32H54.4719V9.67199L54.6399 6.98399H54.3279L53.4159 9.67199L51.0159 15.36H45.5439L43.1439 9.67199L42.2319 6.98399H41.9199L42.0879 9.67199V16.32Z" fill="black"/>
<path d="M27.3728 16.56C21.7808 16.56 18.4688 13.296 18.4688 8.28C18.4688 3.264 21.7808 0 27.3728 0C33.1088 0 36.3728 3.264 36.3728 8.28C36.3728 13.296 33.1088 16.56 27.3728 16.56ZM27.3728 12.24C30.6368 12.24 31.5728 11.472 31.5728 8.28C31.5728 5.088 30.6368 4.32 27.3728 4.32C24.1088 4.32 23.2688 5.088 23.2688 8.28C23.2688 11.472 24.1088 12.24 27.3728 12.24Z" fill="black"/>
<path d="M8.88 16.56C3.288 16.56 0 13.296 0 8.28C0 3.264 3.288 0 8.88 0C14.28 0 17.52 2.568 17.52 6.864V7.272H12.48V6.864C12.48 5.04 11.616 4.32 8.952 4.32C5.688 4.32 4.8 5.088 4.8 8.28C4.8 11.472 5.688 12.24 8.952 12.24C11.616 12.24 12.48 11.52 12.48 9.696V9.288H17.52V9.696C17.52 13.992 14.28 16.56 8.88 16.56Z" fill="black"/>
</svg>
